<svg id="Layer_1" data-name="Layer 1" xmlns="http://www.w3.org/2000/svg" viewBox="0 0 3600 3500.79"><defs><style>.cls-1{fill:#0049ff;}.cls-2{fill:#00b1ff;}</style></defs><title>Glyph</title><path class="cls-1" d="M1795.13,3500.79q-392,0-721-137.82T505.59,2990.7Q266.09,2756.18,133,2439.49T0,1760.06v-9.67Q0,1387.77,135.46,1071T510.46,515q239.51-239.28,571-377.14T1804.87,0q391.88,0,720.92,137.82t568.55,372.34q239.51,234.52,372.56,551.21T3600,1740.72v9.67q0,362.75-135.53,679.43t-375,556Q2850,3225.22,2518.55,3363T1795.13,3500.79Zm9.74-685q222.35,0,411-82.31t321.62-227.59q133-145.28,207.95-336.54t75-409.25v-9.67q0-217.91-75-411.61t-212.74-339q-137.86-145.27-326.51-230T1795.13,685q-227.33,0-413.54,82.31T1062.4,994.93q-133,145.27-208,336.61t-74.92,409.18v9.67q0,217.92,74.92,411.62t212.82,339q137.74,145.28,324,230T1804.87,2815.75Z" transform="translate(0 0)"/><rect class="cls-2" x="1406.89" y="1357.28" width="786.21" height="786.22" rx="393.1" ry="393.1"/></svg>