<svg id="Layer_1" data-name="Layer 1" xmlns="http://www.w3.org/2000/svg" viewBox="0 0 3599.99 1226.57"><title>Typeface</title><path d="M505.49,1018q-110.39,0-203-38.81T142.37,874.36q-67.44-66-104.91-155.21T0,527.83V525.1Q0,423,38.15,333.8T143.74,177.22Q211.18,109.84,304.52,71T508.23,32.21q110.35,0,203,38.81t160.1,104.85q67.44,66,104.91,155.21t37.48,191.3v2.72q0,102.15-38.16,191.32T870,873Q802.52,940.4,709.2,979.18T505.49,1018Zm2.74-192.9q62.61,0,115.74-23.17t90.57-64.09q37.44-40.91,58.55-94.76t21.12-115.24V525.1q0-61.37-21.12-115.9t-59.9-95.45Q674.37,272.83,621.25,249T505.49,225.11q-64,0-116.45,23.18t-89.88,64.08q-37.44,40.92-58.55,94.79t-21.1,115.22v2.72q0,61.36,21.1,115.91t59.92,95.45a289.64,289.64,0,0,0,91.24,64.77Q444.21,825.11,508.23,825.09Z" transform="translate(0 -0.28)"/><path d="M1511.59,1018H1077V.28h207.53l-.64,346.84c30.39-29.46,54.57-51.43,91.71-65.29,39.52-14.75,81.13-20.8,135.59-20.8a324.11,324.11,0,0,1,123.85,24.51q59.87,24.51,106.15,72.83t74.17,118.45q27.9,70.11,27.91,161.34v2.7q0,91.23-27.87,161.35T1742,920.65q-45.55,48.33-105.36,72.84a327.05,327.05,0,0,1-125.08,24.5m-53.44-175.6a165.19,165.19,0,0,0,68.47-14.3,170.48,170.48,0,0,0,56.27-40.85q24.39-26.54,38.64-63.29t14.24-83.07v-2.74q0-44.89-14.24-82.36t-38.64-64a171,171,0,0,0-56.27-40.84,166.18,166.18,0,0,0-192.52,40.84q-23.73,26.57-38,64t-14.24,82.36v2.74q0,44.94,14.24,82.38t38,64a163.52,163.52,0,0,0,55.58,40.85A165.19,165.19,0,0,0,1458.15,842.39Z" transform="translate(0 -0.28)"/><path d="M1903.68.28h207.54V1018H1903.68Z" transform="translate(0 -0.28)"/><path d="M2316.67.28h0a103.76,103.76,0,0,1,103.76,103.77h0a103.76,103.76,0,0,1-103.76,103.77h0A103.77,103.77,0,0,1,2212.9,104.05h0A103.77,103.77,0,0,1,2316.67.28ZM2212.9,281h207.53v737H2212.9Z" transform="translate(0 -0.28)"/><path d="M2522.12,451.27h-67.81V281h67.81V234.65q0-118.54,58.72-177.14Q2638.22.3,2748.77.28q49,0,83.79,5.45a393.85,393.85,0,0,1,63.34,15V192.43a377.51,377.51,0,0,0-45-13.05q-21.8-4.8-49-4.82-74.93,0-74.91,79.11v28.65h332.18l56.73,169H2729.65V1018H2522.12Z" transform="translate(0 -0.28)"/><path d="M3079.61,1226.86q-57.22,0-100.82-13.62a399.45,399.45,0,0,1-83.08-36.77l69.47-149.83a233.51,233.51,0,0,0,44.27,20.43q23.82,8.15,44.28,8.17,27.26,0,42.9-10.2t29.29-37.5L2839.86,282.33h219.31l166.19,489.22,159.39-489.22H3600l-280.64,740.13q-20.46,55.85-43.59,94.71t-51.09,63.35a171.93,171.93,0,0,1-63.34,35.44Q3125.93,1226.85,3079.61,1226.86Z" transform="translate(0 -0.28)"/></svg>